<svg xmlns="http://www.w3.org/2000/svg" viewBox="0 0 64 64" role="img" aria-label="Typing Test icon">
	<rect width="64" height="64" rx="14" fill="#0b1324"/>
	<rect x="8" y="16" width="48" height="32" rx="8" fill="#1b2a4a" stroke="#67e8f9" stroke-width="2"/>
	<rect x="14" y="22" width="6" height="4" rx="1" fill="#e2e8f0"/>
	<rect x="22" y="22" width="6" height="4" rx="1" fill="#e2e8f0"/>
	<rect x="30" y="22" width="6" height="4" rx="1" fill="#e2e8f0"/>
	<rect x="38" y="22" width="6" height="4" rx="1" fill="#e2e8f0"/>
	<rect x="46" y="22" width="4" height="4" rx="1" fill="#e2e8f0"/>
	<rect x="14" y="28" width="5" height="4" rx="1" fill="#93c5fd"/>
	<rect x="21" y="28" width="5" height="4" rx="1" fill="#93c5fd"/>
	<rect x="28" y="28" width="5" height="4" rx="1" fill="#93c5fd"/>
	<rect x="35" y="28" width="5" height="4" rx="1" fill="#93c5fd"/>
	<rect x="42" y="28" width="8" height="4" rx="1" fill="#93c5fd"/>
	<rect x="14" y="34" width="10" height="4" rx="1" fill="#bae6fd"/>
	<rect x="26" y="34" width="18" height="4" rx="1" fill="#22d3ee"/>
	<rect x="46" y="34" width="4" height="4" rx="1" fill="#bae6fd"/>
	<rect x="18" y="40" width="28" height="4" rx="2" fill="#e2e8f0"/>
</svg>